<?xml version="1.0" standalone="no"?>
<!DOCTYPE svg PUBLIC "-//W3C//DTD SVG 20010904//EN"
 "http://www.w3.org/TR/2001/REC-SVG-20010904/DTD/svg10.dtd">
<svg version="1.0" xmlns="http://www.w3.org/2000/svg"
 width="887.000000pt" height="234.000000pt" viewBox="0 0 887.000000 234.000000"
 preserveAspectRatio="xMidYMid meet">
<metadata>
Created by potrace 1.16, written by Peter Selinger 2001-2019
</metadata>
<g transform="translate(0.000000,234.000000) scale(0.100000,-0.100000)"
fill="#000000" stroke="none">
<path d="M284 2326 c-148 -36 -254 -162 -275 -327 -25 -199 58 -376 211 -448
50 -23 67 -26 175 -26 109 0 125 2 177 27 113 53 191 165 210 301 31 238 -87
433 -290 476 -67 14 -142 13 -208 -3z m180 -66 c45 -17 108 -83 134 -140 19
-43 25 -78 29 -160 10 -207 -53 -331 -188 -371 -88 -27 -185 28 -239 135 -35
68 -35 71 -35 195 0 95 4 139 18 177 21 61 75 127 126 154 39 21 114 26 155
10z"/>
<path d="M1780 2333 c-107 -9 -186 -49 -259 -129 -75 -81 -95 -143 -95 -284 0
-140 19 -198 93 -281 140 -157 421 -167 581 -22 25 22 40 44 40 59 0 36 -31
30 -92 -16 -154 -118 -340 -83 -428 81 -34 63 -35 66 -35 184 0 111 2 124 28
177 39 80 112 143 183 159 108 24 206 -30 262 -145 24 -48 38 -66 52 -66 18 0
20 7 20 68 0 38 -3 103 -6 145 -8 84 -19 95 -60 56 -21 -19 -24 -20 -80 -6
-65 16 -150 24 -204 20z"/>
<path d="M4340 2327 c-200 -47 -313 -238 -280 -474 13 -99 45 -166 106 -227
71 -72 138 -99 252 -104 98 -5 160 7 222 41 59 32 127 106 156 171 24 52 29
77 32 171 3 82 0 125 -12 166 -32 110 -115 202 -217 240 -65 25 -187 33 -259
16z m220 -96 c90 -72 126 -175 117 -337 -5 -108 -24 -167 -74 -232 -30 -39
-113 -82 -161 -82 -76 0 -163 67 -205 159 -19 40 -21 65 -22 186 0 126 2 145
24 193 31 68 107 138 164 150 56 11 114 -3 157 -37z"/>
<path d="M2770 2271 c0 -26 -3 -76 -6 -110 -7 -61 -7 -61 19 -61 22 0 28 7 42
49 25 76 52 95 141 99 l74 4 0 -310 c0 -346 0 -346 -70 -361 -26 -5 -36 -13
-38 -29 l-3 -22 181 0 181 0 -3 22 c-2 18 -12 24 -42 29 -67 11 -66 7 -66 357
l0 314 74 -4 c88 -4 107 -17 135 -92 13 -37 25 -52 40 -54 20 -3 21 0 21 107
l0 111 -340 0 -340 0 0 -49z"/>
<path d="M5460 2302 c0 -15 9 -21 40 -26 71 -11 71 -13 68 -359 -2 -221 -6
-309 -15 -318 -7 -7 -29 -15 -50 -18 -30 -5 -39 -11 -41 -30 l-4 -23 249 5
c141 2 264 9 284 16 114 35 172 129 154 247 -8 55 -41 95 -105 127 l-49 25 28
12 c64 26 100 105 87 191 -10 69 -39 107 -104 137 -56 27 -61 27 -299 30 -235
3 -243 3 -243 -16z m429 -70 c74 -36 101 -120 59 -182 -34 -51 -79 -70 -165
-70 l-73 0 0 134 c0 98 3 136 13 140 22 10 130 -4 166 -22z m15 -350 c115 -51
117 -211 3 -262 -48 -22 -166 -27 -185 -8 -8 8 -12 57 -12 156 l0 145 74 -6
c41 -3 95 -14 120 -25z"/>
<path d="M6810 2301 c0 -14 10 -21 35 -25 64 -12 65 -17 65 -343 0 -164 -4
-303 -10 -317 -7 -20 -19 -27 -50 -32 -34 -6 -40 -10 -40 -30 l0 -24 324 0
323 0 27 98 c14 54 26 104 26 110 0 7 -13 12 -29 12 -21 0 -32 -6 -36 -21 -10
-30 -63 -88 -99 -106 -41 -22 -259 -32 -281 -13 -12 10 -15 41 -15 156 l0 144
105 0 c129 0 152 -9 168 -67 9 -35 15 -43 34 -43 23 0 23 0 23 145 l0 145 -24
0 c-19 0 -25 -7 -30 -35 -12 -61 -42 -75 -167 -75 l-109 0 0 129 c0 102 3 131
15 141 11 9 48 11 134 8 136 -5 164 -16 189 -79 11 -30 21 -39 39 -39 22 0 23
2 23 90 l0 90 -320 0 c-307 0 -320 -1 -320 -19z"/>
<path d="M8100 2302 c0 -13 11 -21 37 -28 61 -15 63 -24 63 -352 l0 -293 -25
-24 c-13 -14 -36 -25 -50 -25 -20 0 -25 -5 -25 -25 l0 -25 170 0 170 0 0 25
c0 21 -5 25 -30 25 -17 0 -39 9 -50 20 -18 18 -20 33 -20 155 0 134 0 135 23
134 17 0 55 -44 160 -180 l138 -179 104 0 c98 0 105 1 105 20 0 13 -13 25 -41
37 -31 14 -69 52 -163 168 l-122 149 49 17 c103 35 143 88 141 191 -2 79 -22
120 -79 159 -58 40 -125 49 -352 49 -190 0 -203 -1 -203 -18z m360 -53 c95
-20 146 -95 121 -178 -20 -68 -72 -99 -193 -116 l-48 -6 0 145 c0 178 2 180
120 155z"/>
<path d="M1710 813 c-106 -10 -184 -48 -253 -122 -76 -81 -107 -163 -107 -288
0 -103 16 -165 61 -233 49 -73 132 -130 222 -155 123 -33 335 -8 424 50 22 15
23 20 23 155 0 127 2 142 20 160 11 11 29 20 40 20 13 0 20 7 20 20 0 19 -7
20 -160 20 -150 0 -160 -1 -160 -19 0 -14 10 -20 40 -25 24 -4 43 -14 50 -25
15 -30 13 -256 -3 -269 -7 -6 -40 -18 -73 -25 -47 -11 -71 -11 -116 -2 -144
29 -228 150 -228 330 0 167 64 279 185 324 63 24 97 26 146 9 59 -20 107 -61
145 -125 29 -51 42 -63 62 -63 23 0 24 3 18 38 -3 20 -6 81 -6 135 0 95 0 97
-24 97 -13 0 -30 -10 -38 -22 -14 -21 -15 -21 -84 -5 -79 18 -153 25 -204 20z"/>
<path d="M4494 810 c-130 -26 -229 -115 -275 -247 -23 -69 -26 -224 -5 -294
40 -131 134 -225 258 -259 77 -20 221 -10 290 22 154 71 236 245 210 441 -24
182 -133 306 -297 336 -66 12 -121 13 -181 1z m203 -91 c79 -49 123 -159 123
-305 0 -120 -14 -183 -53 -241 -74 -110 -182 -140 -283 -78 -94 59 -140 180
-131 345 7 126 28 182 92 247 39 39 63 53 96 60 52 11 110 0 156 -28z"/>
<path d="M5808 810 c-81 -24 -134 -90 -145 -178 -7 -59 9 -110 45 -154 15 -17
84 -69 154 -115 138 -89 168 -122 168 -185 0 -47 -38 -94 -90 -109 -81 -25
-187 44 -242 156 -17 34 -28 45 -45 45 -13 0 -23 -3 -23 -7 0 -5 7 -65 17
-135 16 -121 18 -128 40 -128 12 0 27 9 32 19 10 19 12 19 72 0 157 -49 303
-7 360 103 23 44 26 143 5 191 -18 44 -85 103 -191 167 -124 76 -175 126 -175
172 0 70 79 114 157 86 52 -18 117 -85 135 -139 12 -36 19 -45 42 -47 27 -3
28 -2 23 35 -4 21 -9 65 -12 98 -11 116 -16 135 -34 135 -9 0 -24 -9 -33 -19
-16 -19 -17 -19 -84 0 -72 20 -130 23 -176 9z"/>
<path d="M2760 781 c0 -14 10 -21 35 -25 64 -12 65 -17 65 -343 0 -164 -4
-303 -10 -317 -7 -20 -19 -27 -50 -32 -34 -6 -40 -10 -40 -30 l0 -24 170 0
170 0 0 25 c0 20 -5 25 -25 25 -14 0 -37 11 -50 25 -24 23 -25 29 -25 160 l0
135 165 0 165 0 0 -140 c0 -127 -2 -142 -20 -160 -11 -11 -33 -20 -50 -20 -25
0 -30 -4 -30 -25 l0 -25 170 0 170 0 0 25 c0 20 -5 25 -25 25 -14 0 -37 11
-50 25 l-25 24 0 293 c0 328 2 337 63 351 27 7 37 14 37 28 0 18 -10 19 -170
19 -160 0 -170 -1 -170 -19 0 -14 10 -21 35 -25 57 -11 65 -33 65 -178 l0
-128 -165 0 -165 0 0 128 c0 145 8 167 65 178 25 4 35 11 35 25 0 18 -10 19
-170 19 -160 0 -170 -1 -170 -19z"/>
<path d="M6830 689 c0 -106 1 -110 21 -107 15 2 26 17 37 53 24 69 64 95 148
95 l64 0 0 -313 c0 -348 1 -345 -66 -356 -30 -5 -40 -11 -42 -29 l-3 -22 181
0 181 0 -3 22 c-2 17 -12 24 -43 30 -22 5 -46 16 -52 25 -10 13 -13 95 -13
331 l0 314 74 -4 c89 -4 119 -25 140 -98 11 -37 17 -45 37 -45 18 0 24 5 23
23 0 12 -1 60 -2 107 l-2 85 -340 0 -340 0 0 -111z"/>
</g>
</svg>
